<?xml version="1.0" encoding="UTF-8" standalone="no"?>
<svg width="128px" height="128px" viewBox="0 0 128 128" version="1.1" xmlns="http://www.w3.org/2000/svg" xmlns:xlink="http://www.w3.org/1999/xlink">
    <!-- Generator: Sketch 42 (36781) - http://www.bohemiancoding.com/sketch -->
    <title>GA Plugin icon</title>
    <desc>Created with Sketch.</desc>
    <defs>
        <circle id="path-1" cx="64" cy="64" r="64"></circle>
        <mask id="mask-2" maskContentUnits="userSpaceOnUse" maskUnits="objectBoundingBox" x="0" y="0" width="128" height="128" fill="white">
            <use xlink:href="#path-1"></use>
        </mask>
    </defs>
    <g id="Page-1" stroke="none" stroke-width="1" fill="none" fill-rule="evenodd">
        <g id="GA-Plugin-icon">
            <g id="ga-icon">
                <use id="Oval" stroke="#EEEEEE" mask="url(#mask-2)" stroke-width="10" fill="#F27150" xlink:href="#path-1"></use>
                <g id="Group-6" stroke-width="1" transform="translate(44.000000, 41.000000)">
                    <g id="Group-2" transform="translate(40.000000, 0.000000)" fill-rule="nonzero">
                        <path d="M11.3333333,3 L5.66666667,3 C2.53725,3 0,5.388 0,8.33333333 L0,51 L11.8117676,51 C14.4177246,51 17,48.3798828 17,46.0568848 L17,8.33333333 C17,5.388 14.46275,3 11.3333333,3 Z" id="Shape-Copy" fill="#D96447"></path>
                        <path d="M11.3333333,0 L5.66666667,0 C2.53725,0 0,2.388 0,5.33333333 L0,48 L11.8117676,48 C14.4177246,48 17,45.3798828 17,43.0568848 L17,5.33333333 C17,2.388 14.46275,0 11.3333333,0 Z" id="Shape" fill="#FFFFFF"></path>
                    </g>
                    <g id="Group-3" transform="translate(20.000000, 20.000000)" fill-rule="nonzero">
                        <g id="Group-5">
                            <path d="M11.3333333,3 L5.66666667,3 C2.53725,3 0,5.388 0,8.33333333 L0,31 L17,31 L17,8.33333333 C17,5.388 14.46275,3 11.3333333,3 Z" id="Shape" fill="#D96447"></path>
                            <path d="M11.3333333,0 L5.66666667,0 C2.53725,0 0,2.388 0,5.33333333 L0,28 L17,28 L17,5.33333333 C17,2.388 14.46275,0 11.3333333,0 Z" id="Shape" fill="#FFFFFF"></path>
                        </g>
                    </g>
                    <g id="Group-4" transform="translate(8.500000, 39.000000) scale(-1, 1) translate(-8.500000, -39.000000) translate(0.000000, 27.000000)" fill-rule="nonzero">
                        <path d="M11.3333333,3 L5.66666667,3 C2.53725,3 0,5.3506875 0,8.25 L0,24 L11.3333333,24 C14.46275,24 17,21.6493125 17,18.75 L17,8.25 C17,5.3506875 14.46275,3 11.3333333,3 Z" id="Shape" fill="#D96447"></path>
                        <path d="M11.3333333,0 L5.66666667,0 C2.53725,0 0,2.3506875 0,5.25 L0,21 L11.3333333,21 C14.46275,21 17,18.6493125 17,15.75 L17,5.25 C17,2.3506875 14.46275,0 11.3333333,0 Z" id="Shape" fill="#FFFFFF"></path>
                    </g>
                </g>
                <path d="M31.4622096,36.0271213 C31.098842,32.789846 32.8496133,28 38.6304619,28 C42.9908735,28 43.6185085,30.8078408 43.5854751,32.3604116 C43.5524416,34.6066842 42.4953722,36.0931881 38.5313617,39.0331626 C40.6124672,40.8169673 44.0809764,43.5587412 44.8407451,44.8800781 C46.327249,41.2464018 48.4083545,37.0511573 50.7537274,36.952057 C52.8017995,36.8529568 53,38.8679955 53,39.2313631 C52.9669666,41.2464018 51.0510282,41.9401036 49.5645242,41.0151678 C48.9699227,40.6518002 48.7386887,40.6187668 48.2431874,41.4776357 C47.582519,42.5347052 46.5915164,44.1203094 45.8317477,45.9701809 L46.4263493,46.8620833 C46.4263493,46.8620833 47.9458866,48.7780217 47.97892,51.784063 C48.0119535,54.7901043 46.4593827,60.0096851 40.2490996,60.2078856 C37.0778912,60.2406187 36.7805904,59.0847493 36.7805904,58.1925467 C36.7805904,57.4000449 36.9787909,56.5081425 38.3661946,56.5081425 C39.4893309,56.5081425 40.0178656,57.0036438 40.0839324,57.961613 C40.0839324,58.5234815 40.1830327,59.0186825 40.909768,58.8865488 C41.6365032,58.7547154 44.4113106,58.4243812 44.6755779,54.4928035 C44.8077116,52.015297 43.4533414,50.8927613 42.9578401,50.1654254 C40.9758348,52.6101988 38.399228,54.2288365 34.7655517,54.1627696 C30.6363741,54.0970031 29.0838033,51.0576281 29.0177365,48.7122552 C28.9516696,47.2587847 28.8856028,44.9794786 32.4862457,41.8085705 C33.1138806,41.3461026 33.8075825,40.7184676 33.8075825,40.7184676 C33.8075825,40.7184676 31.726477,38.6037281 31.4622096,36.0271213 Z M38.4325617,45.5737799 C36.8469575,44.1533428 35.393487,42.3695381 34.765852,41.7749365 C32.0571115,43.6248081 31.9580112,48.877122 34.6997852,50.1651251 C37.9370604,51.6849627 40.7118677,50.2975591 42.066238,49.0753225 C41.5704364,48.2822201 40.2163664,47.1590838 38.4325617,45.5737799 Z M40.1172662,32.8559129 C40.1502996,31.5676095 39.786932,29.4204371 37.672793,29.3874037 C35.5586541,29.3543703 34.9640525,31.138175 34.9640525,33.2853473 C34.9640525,35.4655531 36.5826901,36.9850905 37.5406593,38.0751934 C39.4893309,36.0271213 40.0842328,34.1442163 40.1172662,32.8559129 Z" id="Shape" fill="#FFFFFF"></path>
            </g>
        </g>
    </g>
</svg>